<svg width="56" height="56" viewBox="0 0 56 56" fill="none" xmlns="http://www.w3.org/2000/svg">
<path d="M28 0C12.8212 0 0 12.8212 0 28C0 43.1788 12.8212 56 28 56C43.1788 56 56 43.1788 56 28C56 12.8212 43.1788 0 28 0ZM28 14C32.8356 14 36.4 17.5616 36.4 22.4C36.4 27.2384 32.8356 30.8 28 30.8C23.1672 30.8 19.6 27.2384 19.6 22.4C19.6 17.5616 23.1672 14 28 14ZM13.7032 41.3616C16.2148 37.6656 20.4036 35.2016 25.2 35.2016H30.8C35.5992 35.2016 39.7852 37.6656 42.2968 41.3616C38.7184 45.192 33.642 47.6 28 47.6C22.358 47.6 17.2816 45.192 13.7032 41.3616Z" fill="#3339D3"/>
</svg>
