<svg width="32" height="32" viewBox="0 0 32 32" fill="none" xmlns="http://www.w3.org/2000/svg">
<path d="M2.66675 16L9.33341 21.3333V17.3333H21.3334V14.6667H9.33341V10.6667L2.66675 16Z" fill="black"/>
<path d="M17.3347 3.99867C15.7581 3.9943 14.1962 4.30282 12.7397 4.90636C11.2831 5.50989 9.96084 6.39645 8.84937 7.51467L10.7347 9.40001C12.4974 7.63734 14.8414 6.66534 17.3347 6.66534C19.828 6.66534 22.172 7.63734 23.9347 9.40001C25.6974 11.1627 26.6694 13.5067 26.6694 16C26.6694 18.4933 25.6974 20.8373 23.9347 22.6C22.172 24.3627 19.828 25.3347 17.3347 25.3347C14.8414 25.3347 12.4974 24.3627 10.7347 22.6L8.84937 24.4853C11.1147 26.752 14.128 28.0013 17.3347 28.0013C20.5414 28.0013 23.5547 26.752 25.82 24.4853C28.0867 22.22 29.336 19.2067 29.336 16C29.336 12.7933 28.0867 9.78001 25.82 7.51467C24.7086 6.39645 23.3863 5.50989 21.9297 4.90636C20.4732 4.30282 18.9113 3.9943 17.3347 3.99867Z" fill="black"/>
</svg>
